<svg xmlns="http://www.w3.org/2000/svg" viewBox="0 0 800 100" width="100%" height="100%">
  <style>
    .bg {
      fill: #0b0e14;
    }
    .ground {
      stroke: #00ff41;
      stroke-width: 2;
      stroke-dasharray: 4 4;
    }
    
    @keyframes runner-switch {
      0%, 49% { opacity: 1; }
      50%, 100% { opacity: 0; }
    }
    @keyframes runner-switch-inv {
      0%, 49% { opacity: 0; }
      50%, 100% { opacity: 1; }
    }

    @keyframes chase-bug {
      0% { transform: translateX(850px); }
      100% { transform: translateX(-100px); }
    }

    @keyframes jump-hacker {
      0% { transform: translateY(0); }
      10% { transform: translateY(0); }
      15% { transform: translateY(-20px); }
      20% { transform: translateY(0); }
      100% { transform: translateY(0); }
    }

    .bug {
      animation: chase-bug 6s infinite linear;
    }

    .hacker-container {
      animation: jump-hacker 2s infinite ease-in-out;
    }

    .frame-a {
      animation: runner-switch 0.2s infinite;
    }
    .frame-b {
      animation: runner-switch-inv 0.2s infinite;
    }

    .footer-text {
      font-family: 'Courier New', Courier, monospace;
      font-weight: bold;
      fill: #8b949e;
      font-size: 11px;
    }
  </style>

  <!-- Background -->
  <rect width="800" height="100" class="bg" />

  <!-- Ground Line -->
  <line x1="0" y1="80" x2="800" y2="80" class="ground" />

  <!-- The Bug/Virus being chased -->
  <g class="bug" transform="translate(0, 50)">
    <rect x="3" y="0" width="3" height="3" fill="#ea4aaa" shape-rendering="crispEdges" />
<rect x="24" y="0" width="3" height="3" fill="#ea4aaa" shape-rendering="crispEdges" />
<rect x="6" y="3" width="3" height="3" fill="#ea4aaa" shape-rendering="crispEdges" />
<rect x="21" y="3" width="3" height="3" fill="#ea4aaa" shape-rendering="crispEdges" />
<rect x="6" y="6" width="3" height="3" fill="#ea4aaa" shape-rendering="crispEdges" />
<rect x="9" y="6" width="3" height="3" fill="#ea4aaa" shape-rendering="crispEdges" />
<rect x="12" y="6" width="3" height="3" fill="#ea4aaa" shape-rendering="crispEdges" />
<rect x="15" y="6" width="3" height="3" fill="#ea4aaa" shape-rendering="crispEdges" />
<rect x="18" y="6" width="3" height="3" fill="#ea4aaa" shape-rendering="crispEdges" />
<rect x="21" y="6" width="3" height="3" fill="#ea4aaa" shape-rendering="crispEdges" />
<rect x="3" y="9" width="3" height="3" fill="#ea4aaa" shape-rendering="crispEdges" />
<rect x="6" y="9" width="3" height="3" fill="#ea4aaa" shape-rendering="crispEdges" />
<rect x="9" y="9" width="3" height="3" fill="#ffffff" shape-rendering="crispEdges" />
<rect x="12" y="9" width="3" height="3" fill="#ea4aaa" shape-rendering="crispEdges" />
<rect x="15" y="9" width="3" height="3" fill="#ea4aaa" shape-rendering="crispEdges" />
<rect x="18" y="9" width="3" height="3" fill="#ffffff" shape-rendering="crispEdges" />
<rect x="21" y="9" width="3" height="3" fill="#ea4aaa" shape-rendering="crispEdges" />
<rect x="24" y="9" width="3" height="3" fill="#ea4aaa" shape-rendering="crispEdges" />
<rect x="0" y="12" width="3" height="3" fill="#ea4aaa" shape-rendering="crispEdges" />
<rect x="3" y="12" width="3" height="3" fill="#ea4aaa" shape-rendering="crispEdges" />
<rect x="6" y="12" width="3" height="3" fill="#ea4aaa" shape-rendering="crispEdges" />
<rect x="9" y="12" width="3" height="3" fill="#ea4aaa" shape-rendering="crispEdges" />
<rect x="12" y="12" width="3" height="3" fill="#ea4aaa" shape-rendering="crispEdges" />
<rect x="15" y="12" width="3" height="3" fill="#ea4aaa" shape-rendering="crispEdges" />
<rect x="18" y="12" width="3" height="3" fill="#ea4aaa" shape-rendering="crispEdges" />
<rect x="21" y="12" width="3" height="3" fill="#ea4aaa" shape-rendering="crispEdges" />
<rect x="24" y="12" width="3" height="3" fill="#ea4aaa" shape-rendering="crispEdges" />
<rect x="27" y="12" width="3" height="3" fill="#ea4aaa" shape-rendering="crispEdges" />
<rect x="0" y="15" width="3" height="3" fill="#ea4aaa" shape-rendering="crispEdges" />
<rect x="3" y="15" width="3" height="3" fill="#ea4aaa" shape-rendering="crispEdges" />
<rect x="6" y="15" width="3" height="3" fill="#ea4aaa" shape-rendering="crispEdges" />
<rect x="9" y="15" width="3" height="3" fill="#ea4aaa" shape-rendering="crispEdges" />
<rect x="12" y="15" width="3" height="3" fill="#ea4aaa" shape-rendering="crispEdges" />
<rect x="15" y="15" width="3" height="3" fill="#ea4aaa" shape-rendering="crispEdges" />
<rect x="18" y="15" width="3" height="3" fill="#ea4aaa" shape-rendering="crispEdges" />
<rect x="21" y="15" width="3" height="3" fill="#ea4aaa" shape-rendering="crispEdges" />
<rect x="24" y="15" width="3" height="3" fill="#ea4aaa" shape-rendering="crispEdges" />
<rect x="27" y="15" width="3" height="3" fill="#ea4aaa" shape-rendering="crispEdges" />
<rect x="3" y="18" width="3" height="3" fill="#ea4aaa" shape-rendering="crispEdges" />
<rect x="6" y="18" width="3" height="3" fill="#ea4aaa" shape-rendering="crispEdges" />
<rect x="9" y="18" width="3" height="3" fill="#ea4aaa" shape-rendering="crispEdges" />
<rect x="12" y="18" width="3" height="3" fill="#ea4aaa" shape-rendering="crispEdges" />
<rect x="15" y="18" width="3" height="3" fill="#ea4aaa" shape-rendering="crispEdges" />
<rect x="18" y="18" width="3" height="3" fill="#ea4aaa" shape-rendering="crispEdges" />
<rect x="21" y="18" width="3" height="3" fill="#ea4aaa" shape-rendering="crispEdges" />
<rect x="24" y="18" width="3" height="3" fill="#ea4aaa" shape-rendering="crispEdges" />
<rect x="6" y="21" width="3" height="3" fill="#ea4aaa" shape-rendering="crispEdges" />
<rect x="12" y="21" width="3" height="3" fill="#ea4aaa" shape-rendering="crispEdges" />
<rect x="18" y="21" width="3" height="3" fill="#ea4aaa" shape-rendering="crispEdges" />
<rect x="24" y="21" width="3" height="3" fill="#ea4aaa" shape-rendering="crispEdges" />
<rect x="3" y="24" width="3" height="3" fill="#ea4aaa" shape-rendering="crispEdges" />
<rect x="12" y="24" width="3" height="3" fill="#ea4aaa" shape-rendering="crispEdges" />
<rect x="21" y="24" width="3" height="3" fill="#ea4aaa" shape-rendering="crispEdges" />
    <text x="-10" y="-8" font-family="monospace" font-size="8" fill="#ea4aaa">virus.exe</text>
  </g>

  <!-- Hacker chasing -->
  <g transform="translate(250, 32)">
    <g class="hacker-container">
      <g class="frame-a">
        <rect x="15" y="0" width="3" height="3" fill="#00ff41" shape-rendering="crispEdges" />
<rect x="18" y="0" width="3" height="3" fill="#00ff41" shape-rendering="crispEdges" />
<rect x="21" y="0" width="3" height="3" fill="#00ff41" shape-rendering="crispEdges" />
<rect x="24" y="0" width="3" height="3" fill="#00ff41" shape-rendering="crispEdges" />
<rect x="27" y="0" width="3" height="3" fill="#00ff41" shape-rendering="crispEdges" />
<rect x="12" y="3" width="3" height="3" fill="#00ff41" shape-rendering="crispEdges" />
<rect x="15" y="3" width="3" height="3" fill="#00ff41" shape-rendering="crispEdges" />
<rect x="18" y="3" width="3" height="3" fill="#00ff41" shape-rendering="crispEdges" />
<rect x="21" y="3" width="3" height="3" fill="#00ff41" shape-rendering="crispEdges" />
<rect x="24" y="3" width="3" height="3" fill="#00ff41" shape-rendering="crispEdges" />
<rect x="27" y="3" width="3" height="3" fill="#00ff41" shape-rendering="crispEdges" />
<rect x="30" y="3" width="3" height="3" fill="#00ff41" shape-rendering="crispEdges" />
<rect x="9" y="6" width="3" height="3" fill="#00ff41" shape-rendering="crispEdges" />
<rect x="12" y="6" width="3" height="3" fill="#00ff41" shape-rendering="crispEdges" />
<rect x="15" y="6" width="3" height="3" fill="#161b22" shape-rendering="crispEdges" />
<rect x="18" y="6" width="3" height="3" fill="#161b22" shape-rendering="crispEdges" />
<rect x="21" y="6" width="3" height="3" fill="#161b22" shape-rendering="crispEdges" />
<rect x="24" y="6" width="3" height="3" fill="#161b22" shape-rendering="crispEdges" />
<rect x="27" y="6" width="3" height="3" fill="#00ff41" shape-rendering="crispEdges" />
<rect x="30" y="6" width="3" height="3" fill="#00ff41" shape-rendering="crispEdges" />
<rect x="33" y="6" width="3" height="3" fill="#00ff41" shape-rendering="crispEdges" />
<rect x="6" y="9" width="3" height="3" fill="#00ff41" shape-rendering="crispEdges" />
<rect x="9" y="9" width="3" height="3" fill="#00ff41" shape-rendering="crispEdges" />
<rect x="12" y="9" width="3" height="3" fill="#161b22" shape-rendering="crispEdges" />
<rect x="15" y="9" width="3" height="3" fill="#58a6ff" shape-rendering="crispEdges" />
<rect x="24" y="9" width="3" height="3" fill="#58a6ff" shape-rendering="crispEdges" />
<rect x="27" y="9" width="3" height="3" fill="#161b22" shape-rendering="crispEdges" />
<rect x="30" y="9" width="3" height="3" fill="#00ff41" shape-rendering="crispEdges" />
<rect x="33" y="9" width="3" height="3" fill="#00ff41" shape-rendering="crispEdges" />
<rect x="6" y="12" width="3" height="3" fill="#00ff41" shape-rendering="crispEdges" />
<rect x="9" y="12" width="3" height="3" fill="#00ff41" shape-rendering="crispEdges" />
<rect x="12" y="12" width="3" height="3" fill="#161b22" shape-rendering="crispEdges" />
<rect x="27" y="12" width="3" height="3" fill="#161b22" shape-rendering="crispEdges" />
<rect x="30" y="12" width="3" height="3" fill="#00ff41" shape-rendering="crispEdges" />
<rect x="33" y="12" width="3" height="3" fill="#00ff41" shape-rendering="crispEdges" />
<rect x="6" y="15" width="3" height="3" fill="#00ff41" shape-rendering="crispEdges" />
<rect x="9" y="15" width="3" height="3" fill="#00ff41" shape-rendering="crispEdges" />
<rect x="12" y="15" width="3" height="3" fill="#161b22" shape-rendering="crispEdges" />
<rect x="15" y="15" width="3" height="3" fill="#161b22" shape-rendering="crispEdges" />
<rect x="18" y="15" width="3" height="3" fill="#161b22" shape-rendering="crispEdges" />
<rect x="21" y="15" width="3" height="3" fill="#161b22" shape-rendering="crispEdges" />
<rect x="24" y="15" width="3" height="3" fill="#161b22" shape-rendering="crispEdges" />
<rect x="27" y="15" width="3" height="3" fill="#161b22" shape-rendering="crispEdges" />
<rect x="30" y="15" width="3" height="3" fill="#00ff41" shape-rendering="crispEdges" />
<rect x="33" y="15" width="3" height="3" fill="#00ff41" shape-rendering="crispEdges" />
<rect x="9" y="18" width="3" height="3" fill="#00ff41" shape-rendering="crispEdges" />
<rect x="12" y="18" width="3" height="3" fill="#00ff41" shape-rendering="crispEdges" />
<rect x="15" y="18" width="3" height="3" fill="#00ff41" shape-rendering="crispEdges" />
<rect x="18" y="18" width="3" height="3" fill="#00ff41" shape-rendering="crispEdges" />
<rect x="21" y="18" width="3" height="3" fill="#00ff41" shape-rendering="crispEdges" />
<rect x="24" y="18" width="3" height="3" fill="#00ff41" shape-rendering="crispEdges" />
<rect x="27" y="18" width="3" height="3" fill="#00ff41" shape-rendering="crispEdges" />
<rect x="30" y="18" width="3" height="3" fill="#00ff41" shape-rendering="crispEdges" />
<rect x="12" y="21" width="3" height="3" fill="#161b22" shape-rendering="crispEdges" />
<rect x="15" y="21" width="3" height="3" fill="#161b22" shape-rendering="crispEdges" />
<rect x="18" y="21" width="3" height="3" fill="#161b22" shape-rendering="crispEdges" />
<rect x="21" y="21" width="3" height="3" fill="#161b22" shape-rendering="crispEdges" />
<rect x="24" y="21" width="3" height="3" fill="#161b22" shape-rendering="crispEdges" />
<rect x="27" y="21" width="3" height="3" fill="#161b22" shape-rendering="crispEdges" />
<rect x="9" y="24" width="3" height="3" fill="#161b22" shape-rendering="crispEdges" />
<rect x="12" y="24" width="3" height="3" fill="#161b22" shape-rendering="crispEdges" />
<rect x="15" y="24" width="3" height="3" fill="#161b22" shape-rendering="crispEdges" />
<rect x="18" y="24" width="3" height="3" fill="#161b22" shape-rendering="crispEdges" />
<rect x="21" y="24" width="3" height="3" fill="#161b22" shape-rendering="crispEdges" />
<rect x="24" y="24" width="3" height="3" fill="#161b22" shape-rendering="crispEdges" />
<rect x="27" y="24" width="3" height="3" fill="#161b22" shape-rendering="crispEdges" />
<rect x="30" y="24" width="3" height="3" fill="#161b22" shape-rendering="crispEdges" />
<rect x="6" y="27" width="3" height="3" fill="#00ff41" shape-rendering="crispEdges" />
<rect x="9" y="27" width="3" height="3" fill="#161b22" shape-rendering="crispEdges" />
<rect x="12" y="27" width="3" height="3" fill="#161b22" shape-rendering="crispEdges" />
<rect x="15" y="27" width="3" height="3" fill="#161b22" shape-rendering="crispEdges" />
<rect x="18" y="27" width="3" height="3" fill="#161b22" shape-rendering="crispEdges" />
<rect x="21" y="27" width="3" height="3" fill="#161b22" shape-rendering="crispEdges" />
<rect x="24" y="27" width="3" height="3" fill="#161b22" shape-rendering="crispEdges" />
<rect x="27" y="27" width="3" height="3" fill="#161b22" shape-rendering="crispEdges" />
<rect x="30" y="27" width="3" height="3" fill="#161b22" shape-rendering="crispEdges" />
<rect x="33" y="27" width="3" height="3" fill="#00ff41" shape-rendering="crispEdges" />
<rect x="3" y="30" width="3" height="3" fill="#00ff41" shape-rendering="crispEdges" />
<rect x="6" y="30" width="3" height="3" fill="#00ff41" shape-rendering="crispEdges" />
<rect x="9" y="30" width="3" height="3" fill="#161b22" shape-rendering="crispEdges" />
<rect x="12" y="30" width="3" height="3" fill="#161b22" shape-rendering="crispEdges" />
<rect x="15" y="30" width="3" height="3" fill="#161b22" shape-rendering="crispEdges" />
<rect x="18" y="30" width="3" height="3" fill="#161b22" shape-rendering="crispEdges" />
<rect x="21" y="30" width="3" height="3" fill="#161b22" shape-rendering="crispEdges" />
<rect x="24" y="30" width="3" height="3" fill="#161b22" shape-rendering="crispEdges" />
<rect x="27" y="30" width="3" height="3" fill="#161b22" shape-rendering="crispEdges" />
<rect x="30" y="30" width="3" height="3" fill="#161b22" shape-rendering="crispEdges" />
<rect x="33" y="30" width="3" height="3" fill="#00ff41" shape-rendering="crispEdges" />
<rect x="36" y="30" width="3" height="3" fill="#00ff41" shape-rendering="crispEdges" />
<rect x="3" y="33" width="3" height="3" fill="#00ff41" shape-rendering="crispEdges" />
<rect x="6" y="33" width="3" height="3" fill="#00ff41" shape-rendering="crispEdges" />
<rect x="9" y="33" width="3" height="3" fill="#161b22" shape-rendering="crispEdges" />
<rect x="12" y="33" width="3" height="3" fill="#161b22" shape-rendering="crispEdges" />
<rect x="15" y="33" width="3" height="3" fill="#161b22" shape-rendering="crispEdges" />
<rect x="18" y="33" width="3" height="3" fill="#161b22" shape-rendering="crispEdges" />
<rect x="21" y="33" width="3" height="3" fill="#161b22" shape-rendering="crispEdges" />
<rect x="24" y="33" width="3" height="3" fill="#161b22" shape-rendering="crispEdges" />
<rect x="27" y="33" width="3" height="3" fill="#161b22" shape-rendering="crispEdges" />
<rect x="30" y="33" width="3" height="3" fill="#161b22" shape-rendering="crispEdges" />
<rect x="33" y="33" width="3" height="3" fill="#00ff41" shape-rendering="crispEdges" />
<rect x="36" y="33" width="3" height="3" fill="#00ff41" shape-rendering="crispEdges" />
<rect x="9" y="36" width="3" height="3" fill="#161b22" shape-rendering="crispEdges" />
<rect x="12" y="36" width="3" height="3" fill="#161b22" shape-rendering="crispEdges" />
<rect x="15" y="36" width="3" height="3" fill="#161b22" shape-rendering="crispEdges" />
<rect x="18" y="36" width="3" height="3" fill="#161b22" shape-rendering="crispEdges" />
<rect x="21" y="36" width="3" height="3" fill="#161b22" shape-rendering="crispEdges" />
<rect x="24" y="36" width="3" height="3" fill="#161b22" shape-rendering="crispEdges" />
<rect x="27" y="36" width="3" height="3" fill="#161b22" shape-rendering="crispEdges" />
<rect x="30" y="36" width="3" height="3" fill="#161b22" shape-rendering="crispEdges" />
<rect x="9" y="39" width="3" height="3" fill="#161b22" shape-rendering="crispEdges" />
<rect x="12" y="39" width="3" height="3" fill="#161b22" shape-rendering="crispEdges" />
<rect x="27" y="39" width="3" height="3" fill="#161b22" shape-rendering="crispEdges" />
<rect x="30" y="39" width="3" height="3" fill="#161b22" shape-rendering="crispEdges" />
<rect x="6" y="42" width="3" height="3" fill="#161b22" shape-rendering="crispEdges" />
<rect x="9" y="42" width="3" height="3" fill="#161b22" shape-rendering="crispEdges" />
<rect x="30" y="42" width="3" height="3" fill="#161b22" shape-rendering="crispEdges" />
<rect x="33" y="42" width="3" height="3" fill="#161b22" shape-rendering="crispEdges" />
<rect x="3" y="45" width="3" height="3" fill="#161b22" shape-rendering="crispEdges" />
<rect x="6" y="45" width="3" height="3" fill="#161b22" shape-rendering="crispEdges" />
<rect x="9" y="45" width="3" height="3" fill="#161b22" shape-rendering="crispEdges" />
<rect x="30" y="45" width="3" height="3" fill="#161b22" shape-rendering="crispEdges" />
<rect x="33" y="45" width="3" height="3" fill="#161b22" shape-rendering="crispEdges" />
<rect x="36" y="45" width="3" height="3" fill="#161b22" shape-rendering="crispEdges" />
      </g>
      <g class="frame-b">
        <rect x="15" y="0" width="3" height="3" fill="#00ff41" shape-rendering="crispEdges" />
<rect x="18" y="0" width="3" height="3" fill="#00ff41" shape-rendering="crispEdges" />
<rect x="21" y="0" width="3" height="3" fill="#00ff41" shape-rendering="crispEdges" />
<rect x="24" y="0" width="3" height="3" fill="#00ff41" shape-rendering="crispEdges" />
<rect x="27" y="0" width="3" height="3" fill="#00ff41" shape-rendering="crispEdges" />
<rect x="12" y="3" width="3" height="3" fill="#00ff41" shape-rendering="crispEdges" />
<rect x="15" y="3" width="3" height="3" fill="#00ff41" shape-rendering="crispEdges" />
<rect x="18" y="3" width="3" height="3" fill="#00ff41" shape-rendering="crispEdges" />
<rect x="21" y="3" width="3" height="3" fill="#00ff41" shape-rendering="crispEdges" />
<rect x="24" y="3" width="3" height="3" fill="#00ff41" shape-rendering="crispEdges" />
<rect x="27" y="3" width="3" height="3" fill="#00ff41" shape-rendering="crispEdges" />
<rect x="30" y="3" width="3" height="3" fill="#00ff41" shape-rendering="crispEdges" />
<rect x="9" y="6" width="3" height="3" fill="#00ff41" shape-rendering="crispEdges" />
<rect x="12" y="6" width="3" height="3" fill="#00ff41" shape-rendering="crispEdges" />
<rect x="15" y="6" width="3" height="3" fill="#161b22" shape-rendering="crispEdges" />
<rect x="18" y="6" width="3" height="3" fill="#161b22" shape-rendering="crispEdges" />
<rect x="21" y="6" width="3" height="3" fill="#161b22" shape-rendering="crispEdges" />
<rect x="24" y="6" width="3" height="3" fill="#161b22" shape-rendering="crispEdges" />
<rect x="27" y="6" width="3" height="3" fill="#00ff41" shape-rendering="crispEdges" />
<rect x="30" y="6" width="3" height="3" fill="#00ff41" shape-rendering="crispEdges" />
<rect x="33" y="6" width="3" height="3" fill="#00ff41" shape-rendering="crispEdges" />
<rect x="6" y="9" width="3" height="3" fill="#00ff41" shape-rendering="crispEdges" />
<rect x="9" y="9" width="3" height="3" fill="#00ff41" shape-rendering="crispEdges" />
<rect x="12" y="9" width="3" height="3" fill="#161b22" shape-rendering="crispEdges" />
<rect x="15" y="9" width="3" height="3" fill="#58a6ff" shape-rendering="crispEdges" />
<rect x="24" y="9" width="3" height="3" fill="#58a6ff" shape-rendering="crispEdges" />
<rect x="27" y="9" width="3" height="3" fill="#161b22" shape-rendering="crispEdges" />
<rect x="30" y="9" width="3" height="3" fill="#00ff41" shape-rendering="crispEdges" />
<rect x="33" y="9" width="3" height="3" fill="#00ff41" shape-rendering="crispEdges" />
<rect x="6" y="12" width="3" height="3" fill="#00ff41" shape-rendering="crispEdges" />
<rect x="9" y="12" width="3" height="3" fill="#00ff41" shape-rendering="crispEdges" />
<rect x="12" y="12" width="3" height="3" fill="#161b22" shape-rendering="crispEdges" />
<rect x="27" y="12" width="3" height="3" fill="#161b22" shape-rendering="crispEdges" />
<rect x="30" y="12" width="3" height="3" fill="#00ff41" shape-rendering="crispEdges" />
<rect x="33" y="12" width="3" height="3" fill="#00ff41" shape-rendering="crispEdges" />
<rect x="6" y="15" width="3" height="3" fill="#00ff41" shape-rendering="crispEdges" />
<rect x="9" y="15" width="3" height="3" fill="#00ff41" shape-rendering="crispEdges" />
<rect x="12" y="15" width="3" height="3" fill="#161b22" shape-rendering="crispEdges" />
<rect x="15" y="15" width="3" height="3" fill="#161b22" shape-rendering="crispEdges" />
<rect x="18" y="15" width="3" height="3" fill="#161b22" shape-rendering="crispEdges" />
<rect x="21" y="15" width="3" height="3" fill="#161b22" shape-rendering="crispEdges" />
<rect x="24" y="15" width="3" height="3" fill="#161b22" shape-rendering="crispEdges" />
<rect x="27" y="15" width="3" height="3" fill="#161b22" shape-rendering="crispEdges" />
<rect x="30" y="15" width="3" height="3" fill="#00ff41" shape-rendering="crispEdges" />
<rect x="33" y="15" width="3" height="3" fill="#00ff41" shape-rendering="crispEdges" />
<rect x="9" y="18" width="3" height="3" fill="#00ff41" shape-rendering="crispEdges" />
<rect x="12" y="18" width="3" height="3" fill="#00ff41" shape-rendering="crispEdges" />
<rect x="15" y="18" width="3" height="3" fill="#00ff41" shape-rendering="crispEdges" />
<rect x="18" y="18" width="3" height="3" fill="#00ff41" shape-rendering="crispEdges" />
<rect x="21" y="18" width="3" height="3" fill="#00ff41" shape-rendering="crispEdges" />
<rect x="24" y="18" width="3" height="3" fill="#00ff41" shape-rendering="crispEdges" />
<rect x="27" y="18" width="3" height="3" fill="#00ff41" shape-rendering="crispEdges" />
<rect x="30" y="18" width="3" height="3" fill="#00ff41" shape-rendering="crispEdges" />
<rect x="12" y="21" width="3" height="3" fill="#161b22" shape-rendering="crispEdges" />
<rect x="15" y="21" width="3" height="3" fill="#161b22" shape-rendering="crispEdges" />
<rect x="18" y="21" width="3" height="3" fill="#161b22" shape-rendering="crispEdges" />
<rect x="21" y="21" width="3" height="3" fill="#161b22" shape-rendering="crispEdges" />
<rect x="24" y="21" width="3" height="3" fill="#161b22" shape-rendering="crispEdges" />
<rect x="27" y="21" width="3" height="3" fill="#161b22" shape-rendering="crispEdges" />
<rect x="9" y="24" width="3" height="3" fill="#161b22" shape-rendering="crispEdges" />
<rect x="12" y="24" width="3" height="3" fill="#161b22" shape-rendering="crispEdges" />
<rect x="15" y="24" width="3" height="3" fill="#161b22" shape-rendering="crispEdges" />
<rect x="18" y="24" width="3" height="3" fill="#161b22" shape-rendering="crispEdges" />
<rect x="21" y="24" width="3" height="3" fill="#161b22" shape-rendering="crispEdges" />
<rect x="24" y="24" width="3" height="3" fill="#161b22" shape-rendering="crispEdges" />
<rect x="27" y="24" width="3" height="3" fill="#161b22" shape-rendering="crispEdges" />
<rect x="30" y="24" width="3" height="3" fill="#161b22" shape-rendering="crispEdges" />
<rect x="6" y="27" width="3" height="3" fill="#00ff41" shape-rendering="crispEdges" />
<rect x="9" y="27" width="3" height="3" fill="#161b22" shape-rendering="crispEdges" />
<rect x="12" y="27" width="3" height="3" fill="#161b22" shape-rendering="crispEdges" />
<rect x="15" y="27" width="3" height="3" fill="#161b22" shape-rendering="crispEdges" />
<rect x="18" y="27" width="3" height="3" fill="#161b22" shape-rendering="crispEdges" />
<rect x="21" y="27" width="3" height="3" fill="#161b22" shape-rendering="crispEdges" />
<rect x="24" y="27" width="3" height="3" fill="#161b22" shape-rendering="crispEdges" />
<rect x="27" y="27" width="3" height="3" fill="#161b22" shape-rendering="crispEdges" />
<rect x="30" y="27" width="3" height="3" fill="#161b22" shape-rendering="crispEdges" />
<rect x="33" y="27" width="3" height="3" fill="#00ff41" shape-rendering="crispEdges" />
<rect x="3" y="30" width="3" height="3" fill="#00ff41" shape-rendering="crispEdges" />
<rect x="6" y="30" width="3" height="3" fill="#00ff41" shape-rendering="crispEdges" />
<rect x="9" y="30" width="3" height="3" fill="#161b22" shape-rendering="crispEdges" />
<rect x="12" y="30" width="3" height="3" fill="#161b22" shape-rendering="crispEdges" />
<rect x="15" y="30" width="3" height="3" fill="#161b22" shape-rendering="crispEdges" />
<rect x="18" y="30" width="3" height="3" fill="#161b22" shape-rendering="crispEdges" />
<rect x="21" y="30" width="3" height="3" fill="#161b22" shape-rendering="crispEdges" />
<rect x="24" y="30" width="3" height="3" fill="#161b22" shape-rendering="crispEdges" />
<rect x="27" y="30" width="3" height="3" fill="#161b22" shape-rendering="crispEdges" />
<rect x="30" y="30" width="3" height="3" fill="#161b22" shape-rendering="crispEdges" />
<rect x="33" y="30" width="3" height="3" fill="#00ff41" shape-rendering="crispEdges" />
<rect x="36" y="30" width="3" height="3" fill="#00ff41" shape-rendering="crispEdges" />
<rect x="3" y="33" width="3" height="3" fill="#00ff41" shape-rendering="crispEdges" />
<rect x="6" y="33" width="3" height="3" fill="#00ff41" shape-rendering="crispEdges" />
<rect x="9" y="33" width="3" height="3" fill="#161b22" shape-rendering="crispEdges" />
<rect x="12" y="33" width="3" height="3" fill="#161b22" shape-rendering="crispEdges" />
<rect x="15" y="33" width="3" height="3" fill="#161b22" shape-rendering="crispEdges" />
<rect x="18" y="33" width="3" height="3" fill="#161b22" shape-rendering="crispEdges" />
<rect x="21" y="33" width="3" height="3" fill="#161b22" shape-rendering="crispEdges" />
<rect x="24" y="33" width="3" height="3" fill="#161b22" shape-rendering="crispEdges" />
<rect x="27" y="33" width="3" height="3" fill="#161b22" shape-rendering="crispEdges" />
<rect x="30" y="33" width="3" height="3" fill="#161b22" shape-rendering="crispEdges" />
<rect x="33" y="33" width="3" height="3" fill="#00ff41" shape-rendering="crispEdges" />
<rect x="36" y="33" width="3" height="3" fill="#00ff41" shape-rendering="crispEdges" />
<rect x="9" y="36" width="3" height="3" fill="#161b22" shape-rendering="crispEdges" />
<rect x="12" y="36" width="3" height="3" fill="#161b22" shape-rendering="crispEdges" />
<rect x="15" y="36" width="3" height="3" fill="#161b22" shape-rendering="crispEdges" />
<rect x="18" y="36" width="3" height="3" fill="#161b22" shape-rendering="crispEdges" />
<rect x="21" y="36" width="3" height="3" fill="#161b22" shape-rendering="crispEdges" />
<rect x="24" y="36" width="3" height="3" fill="#161b22" shape-rendering="crispEdges" />
<rect x="27" y="36" width="3" height="3" fill="#161b22" shape-rendering="crispEdges" />
<rect x="30" y="36" width="3" height="3" fill="#161b22" shape-rendering="crispEdges" />
<rect x="12" y="39" width="3" height="3" fill="#161b22" shape-rendering="crispEdges" />
<rect x="15" y="39" width="3" height="3" fill="#161b22" shape-rendering="crispEdges" />
<rect x="24" y="39" width="3" height="3" fill="#161b22" shape-rendering="crispEdges" />
<rect x="27" y="39" width="3" height="3" fill="#161b22" shape-rendering="crispEdges" />
<rect x="15" y="42" width="3" height="3" fill="#161b22" shape-rendering="crispEdges" />
<rect x="18" y="42" width="3" height="3" fill="#161b22" shape-rendering="crispEdges" />
<rect x="24" y="42" width="3" height="3" fill="#161b22" shape-rendering="crispEdges" />
<rect x="27" y="42" width="3" height="3" fill="#161b22" shape-rendering="crispEdges" />
<rect x="12" y="45" width="3" height="3" fill="#161b22" shape-rendering="crispEdges" />
<rect x="15" y="45" width="3" height="3" fill="#161b22" shape-rendering="crispEdges" />
<rect x="18" y="45" width="3" height="3" fill="#161b22" shape-rendering="crispEdges" />
<rect x="24" y="45" width="3" height="3" fill="#161b22" shape-rendering="crispEdges" />
<rect x="27" y="45" width="3" height="3" fill="#161b22" shape-rendering="crispEdges" />
<rect x="30" y="45" width="3" height="3" fill="#161b22" shape-rendering="crispEdges" />
      </g>
    </g>
    <text x="-15" y="-10" font-family="monospace" font-size="8" fill="#00ff41">hunting...</text>
  </g>

  <!-- Footer text decoration -->
  <text x="20" y="30" class="footer-text">> systemctl status threat-hunting.service</text>
  <text x="20" y="45" font-family="monospace" font-size="10" fill="#00ff41">● active (running) - Hunt in progress</text>
  
  <text x="780" y="30" class="footer-text" text-anchor="end">EST. 2026</text>
</svg>
