<svg xmlns="http://www.w3.org/2000/svg" viewBox="0 0 800 180" width="100%" height="100%">
  <style>
    <![CDATA[
    .bg {
      fill: #0b0e14;
    }
    .grid {
      stroke: #161b22;
      stroke-width: 0.5;
    }
    .ground {
      stroke: #00ff41;
      stroke-width: 2;
      stroke-dasharray: 4 4;
    }
    
    /* Animation for hacker jumping and running */
    @keyframes runner-switch {
      0%, 49% { opacity: 1; }
      50%, 100% { opacity: 0; }
    }
    @keyframes runner-switch-inv {
      0%, 49% { opacity: 0; }
      50%, 100% { opacity: 1; }
    }
    
    @keyframes jump {
      0% { transform: translateY(0); }
      /* Run-up */
      65% { transform: translateY(0); }
      /* Jump up */
      72% { transform: translateY(-70px); }
      /* Peak */
      76% { transform: translateY(-70px); }
      /* Land */
      83% { transform: translateY(0); }
      100% { transform: translateY(0); }
    }

    @keyframes scroll-obstacle {
      0% { transform: translateX(850px); }
      100% { transform: translateX(-100px); }
    }

    @keyframes scroll-bg {
      0% { transform: translateX(0); }
      100% { transform: translateX(-40px); }
    }

    .hacker-container {
      animation: jump 4s infinite cubic-bezier(0.25, 0.46, 0.45, 0.94);
    }

    .frame-a {
      animation: runner-switch 0.3s infinite;
    }
    .frame-b {
      animation: runner-switch-inv 0.3s infinite;
    }

    .obstacle {
      animation: scroll-obstacle 4s infinite linear;
    }

    .star-bg {
      animation: scroll-bg 8s infinite linear;
    }

    .glow-text {
      font-family: 'Courier New', Courier, monospace;
      font-weight: bold;
      fill: #00ff41;
      text-shadow: 0 0 5px #00ff41;
    }

    .binary-text {
      font-family: monospace;
      font-size: 10px;
      fill: #161b22;
    }
    ]]>
  </style>

  <!-- Background -->
  <rect width="800" height="180" class="bg" />

  <!-- Background Grid -->
  <g class="star-bg">
    <line x1="0" y1="20" x2="1600" y2="20" class="grid" />
    <line x1="0" y1="40" x2="1600" y2="40" class="grid" />
    <line x1="0" y1="60" x2="1600" y2="60" class="grid" />
    <line x1="0" y1="80" x2="1600" y2="80" class="grid" />
    <line x1="0" y1="100" x2="1600" y2="100" class="grid" />
    <line x1="0" y1="120" x2="1600" y2="120" class="grid" />
    <line x1="0" y1="140" x2="1600" y2="140" class="grid" />
    
    <!-- Vertical Grid Lines -->
    <line x1="0" y1="0" x2="0" y2="150" class="grid" />
    <line x1="40" y1="0" x2="40" y2="150" class="grid" />
    <line x1="80" y1="0" x2="80" y2="150" class="grid" />
    <line x1="120" y1="0" x2="120" y2="150" class="grid" />
    <line x1="160" y1="0" x2="160" y2="150" class="grid" />
    <line x1="200" y1="0" x2="200" y2="150" class="grid" />
    <line x1="240" y1="0" x2="240" y2="150" class="grid" />
    <line x1="280" y1="0" x2="280" y2="150" class="grid" />
    <line x1="320" y1="0" x2="320" y2="150" class="grid" />
    <line x1="360" y1="0" x2="360" y2="150" class="grid" />
    <line x1="400" y1="0" x2="400" y2="150" class="grid" />
    <line x1="440" y1="0" x2="440" y2="150" class="grid" />
    <line x1="480" y1="0" x2="480" y2="150" class="grid" />
    <line x1="520" y1="0" x2="520" y2="150" class="grid" />
    <line x1="560" y1="0" x2="560" y2="150" class="grid" />
    <line x1="600" y1="0" x2="600" y2="150" class="grid" />
    <line x1="640" y1="0" x2="640" y2="150" class="grid" />
    <line x1="680" y1="0" x2="680" y2="150" class="grid" />
    <line x1="720" y1="0" x2="720" y2="150" class="grid" />
    <line x1="760" y1="0" x2="760" y2="150" class="grid" />
    <line x1="800" y1="0" x2="800" y2="150" class="grid" />
    <line x1="840" y1="0" x2="840" y2="150" class="grid" />
  </g>

  <!-- Binary Background Noise -->
  <text x="30" y="30" class="binary-text">01000011 01011001</text>
  <text x="550" y="35" class="binary-text">01010011 01000101 01000011</text>
  <text x="180" y="55" class="binary-text">10010110 11011010</text>
  <text x="400" y="45" class="binary-text">01101100 01101001 01101110 01110101 01111000</text>

  <!-- Ground Line -->
  <line x1="0" y1="150" x2="800" y2="150" class="ground" />

  <!-- Animated Obstacle (Firewall) -->
  <g class="obstacle" transform="translate(0, 105)">
    <rect x="6" y="0" width="3" height="3" fill="#ff4c4c" shape-rendering="crispEdges" />
<rect x="9" y="0" width="3" height="3" fill="#ff4c4c" shape-rendering="crispEdges" />
<rect x="12" y="0" width="3" height="3" fill="#ff4c4c" shape-rendering="crispEdges" />
<rect x="15" y="0" width="3" height="3" fill="#ff4c4c" shape-rendering="crispEdges" />
<rect x="18" y="0" width="3" height="3" fill="#ff4c4c" shape-rendering="crispEdges" />
<rect x="21" y="0" width="3" height="3" fill="#ff4c4c" shape-rendering="crispEdges" />
<rect x="24" y="0" width="3" height="3" fill="#ff4c4c" shape-rendering="crispEdges" />
<rect x="27" y="0" width="3" height="3" fill="#ff4c4c" shape-rendering="crispEdges" />
<rect x="30" y="0" width="3" height="3" fill="#ff4c4c" shape-rendering="crispEdges" />
<rect x="33" y="0" width="3" height="3" fill="#ff4c4c" shape-rendering="crispEdges" />
<rect x="3" y="3" width="3" height="3" fill="#ff4c4c" shape-rendering="crispEdges" />
<rect x="6" y="3" width="3" height="3" fill="#ff4c4c" shape-rendering="crispEdges" />
<rect x="9" y="3" width="3" height="3" fill="#ff9f1a" shape-rendering="crispEdges" />
<rect x="12" y="3" width="3" height="3" fill="#ff9f1a" shape-rendering="crispEdges" />
<rect x="15" y="3" width="3" height="3" fill="#ff9f1a" shape-rendering="crispEdges" />
<rect x="18" y="3" width="3" height="3" fill="#ff9f1a" shape-rendering="crispEdges" />
<rect x="21" y="3" width="3" height="3" fill="#ff9f1a" shape-rendering="crispEdges" />
<rect x="24" y="3" width="3" height="3" fill="#ff9f1a" shape-rendering="crispEdges" />
<rect x="27" y="3" width="3" height="3" fill="#ff9f1a" shape-rendering="crispEdges" />
<rect x="30" y="3" width="3" height="3" fill="#ff9f1a" shape-rendering="crispEdges" />
<rect x="33" y="3" width="3" height="3" fill="#ff4c4c" shape-rendering="crispEdges" />
<rect x="36" y="3" width="3" height="3" fill="#ff4c4c" shape-rendering="crispEdges" />
<rect x="0" y="6" width="3" height="3" fill="#ff4c4c" shape-rendering="crispEdges" />
<rect x="3" y="6" width="3" height="3" fill="#ff4c4c" shape-rendering="crispEdges" />
<rect x="6" y="6" width="3" height="3" fill="#ff9f1a" shape-rendering="crispEdges" />
<rect x="9" y="6" width="3" height="3" fill="#ff9f1a" shape-rendering="crispEdges" />
<rect x="12" y="6" width="3" height="3" fill="#ff9f1a" shape-rendering="crispEdges" />
<rect x="15" y="6" width="3" height="3" fill="#ff9f1a" shape-rendering="crispEdges" />
<rect x="18" y="6" width="3" height="3" fill="#ff9f1a" shape-rendering="crispEdges" />
<rect x="21" y="6" width="3" height="3" fill="#ff9f1a" shape-rendering="crispEdges" />
<rect x="24" y="6" width="3" height="3" fill="#ff9f1a" shape-rendering="crispEdges" />
<rect x="27" y="6" width="3" height="3" fill="#ff9f1a" shape-rendering="crispEdges" />
<rect x="30" y="6" width="3" height="3" fill="#ff9f1a" shape-rendering="crispEdges" />
<rect x="33" y="6" width="3" height="3" fill="#ff9f1a" shape-rendering="crispEdges" />
<rect x="36" y="6" width="3" height="3" fill="#ff4c4c" shape-rendering="crispEdges" />
<rect x="39" y="6" width="3" height="3" fill="#ff4c4c" shape-rendering="crispEdges" />
<rect x="0" y="9" width="3" height="3" fill="#ff4c4c" shape-rendering="crispEdges" />
<rect x="3" y="9" width="3" height="3" fill="#ff9f1a" shape-rendering="crispEdges" />
<rect x="6" y="9" width="3" height="3" fill="#ff9f1a" shape-rendering="crispEdges" />
<rect x="9" y="9" width="3" height="3" fill="#ff4c4c" shape-rendering="crispEdges" />
<rect x="12" y="9" width="3" height="3" fill="#ff4c4c" shape-rendering="crispEdges" />
<rect x="15" y="9" width="3" height="3" fill="#ff4c4c" shape-rendering="crispEdges" />
<rect x="18" y="9" width="3" height="3" fill="#ff4c4c" shape-rendering="crispEdges" />
<rect x="21" y="9" width="3" height="3" fill="#ff4c4c" shape-rendering="crispEdges" />
<rect x="24" y="9" width="3" height="3" fill="#ff4c4c" shape-rendering="crispEdges" />
<rect x="27" y="9" width="3" height="3" fill="#ff4c4c" shape-rendering="crispEdges" />
<rect x="30" y="9" width="3" height="3" fill="#ff4c4c" shape-rendering="crispEdges" />
<rect x="33" y="9" width="3" height="3" fill="#ff9f1a" shape-rendering="crispEdges" />
<rect x="36" y="9" width="3" height="3" fill="#ff9f1a" shape-rendering="crispEdges" />
<rect x="39" y="9" width="3" height="3" fill="#ff4c4c" shape-rendering="crispEdges" />
<rect x="0" y="12" width="3" height="3" fill="#ff4c4c" shape-rendering="crispEdges" />
<rect x="3" y="12" width="3" height="3" fill="#ff9f1a" shape-rendering="crispEdges" />
<rect x="6" y="12" width="3" height="3" fill="#ff4c4c" shape-rendering="crispEdges" />
<rect x="9" y="12" width="3" height="3" fill="#ff4c4c" shape-rendering="crispEdges" />
<rect x="30" y="12" width="3" height="3" fill="#ff4c4c" shape-rendering="crispEdges" />
<rect x="33" y="12" width="3" height="3" fill="#ff4c4c" shape-rendering="crispEdges" />
<rect x="36" y="12" width="3" height="3" fill="#ff9f1a" shape-rendering="crispEdges" />
<rect x="39" y="12" width="3" height="3" fill="#ff4c4c" shape-rendering="crispEdges" />
<rect x="0" y="15" width="3" height="3" fill="#ff4c4c" shape-rendering="crispEdges" />
<rect x="3" y="15" width="3" height="3" fill="#ff9f1a" shape-rendering="crispEdges" />
<rect x="6" y="15" width="3" height="3" fill="#ff4c4c" shape-rendering="crispEdges" />
<rect x="33" y="15" width="3" height="3" fill="#ff4c4c" shape-rendering="crispEdges" />
<rect x="36" y="15" width="3" height="3" fill="#ff9f1a" shape-rendering="crispEdges" />
<rect x="39" y="15" width="3" height="3" fill="#ff4c4c" shape-rendering="crispEdges" />
<rect x="0" y="18" width="3" height="3" fill="#ff4c4c" shape-rendering="crispEdges" />
<rect x="3" y="18" width="3" height="3" fill="#ff9f1a" shape-rendering="crispEdges" />
<rect x="6" y="18" width="3" height="3" fill="#ff4c4c" shape-rendering="crispEdges" />
<rect x="15" y="18" width="3" height="3" fill="#ffffff" shape-rendering="crispEdges" />
<rect x="18" y="18" width="3" height="3" fill="#ffffff" shape-rendering="crispEdges" />
<rect x="21" y="18" width="3" height="3" fill="#ffffff" shape-rendering="crispEdges" />
<rect x="24" y="18" width="3" height="3" fill="#ffffff" shape-rendering="crispEdges" />
<rect x="33" y="18" width="3" height="3" fill="#ff4c4c" shape-rendering="crispEdges" />
<rect x="36" y="18" width="3" height="3" fill="#ff9f1a" shape-rendering="crispEdges" />
<rect x="39" y="18" width="3" height="3" fill="#ff4c4c" shape-rendering="crispEdges" />
<rect x="0" y="21" width="3" height="3" fill="#ff4c4c" shape-rendering="crispEdges" />
<rect x="3" y="21" width="3" height="3" fill="#ff9f1a" shape-rendering="crispEdges" />
<rect x="6" y="21" width="3" height="3" fill="#ff4c4c" shape-rendering="crispEdges" />
<rect x="15" y="21" width="3" height="3" fill="#ffffff" shape-rendering="crispEdges" />
<rect x="24" y="21" width="3" height="3" fill="#ffffff" shape-rendering="crispEdges" />
<rect x="33" y="21" width="3" height="3" fill="#ff4c4c" shape-rendering="crispEdges" />
<rect x="36" y="21" width="3" height="3" fill="#ff9f1a" shape-rendering="crispEdges" />
<rect x="39" y="21" width="3" height="3" fill="#ff4c4c" shape-rendering="crispEdges" />
<rect x="0" y="24" width="3" height="3" fill="#ff4c4c" shape-rendering="crispEdges" />
<rect x="3" y="24" width="3" height="3" fill="#ff9f1a" shape-rendering="crispEdges" />
<rect x="6" y="24" width="3" height="3" fill="#ff4c4c" shape-rendering="crispEdges" />
<rect x="15" y="24" width="3" height="3" fill="#ffffff" shape-rendering="crispEdges" />
<rect x="18" y="24" width="3" height="3" fill="#ffffff" shape-rendering="crispEdges" />
<rect x="21" y="24" width="3" height="3" fill="#ffffff" shape-rendering="crispEdges" />
<rect x="24" y="24" width="3" height="3" fill="#ffffff" shape-rendering="crispEdges" />
<rect x="33" y="24" width="3" height="3" fill="#ff4c4c" shape-rendering="crispEdges" />
<rect x="36" y="24" width="3" height="3" fill="#ff9f1a" shape-rendering="crispEdges" />
<rect x="39" y="24" width="3" height="3" fill="#ff4c4c" shape-rendering="crispEdges" />
<rect x="0" y="27" width="3" height="3" fill="#ff4c4c" shape-rendering="crispEdges" />
<rect x="3" y="27" width="3" height="3" fill="#ff9f1a" shape-rendering="crispEdges" />
<rect x="6" y="27" width="3" height="3" fill="#ff4c4c" shape-rendering="crispEdges" />
<rect x="21" y="27" width="3" height="3" fill="#ffffff" shape-rendering="crispEdges" />
<rect x="33" y="27" width="3" height="3" fill="#ff4c4c" shape-rendering="crispEdges" />
<rect x="36" y="27" width="3" height="3" fill="#ff9f1a" shape-rendering="crispEdges" />
<rect x="39" y="27" width="3" height="3" fill="#ff4c4c" shape-rendering="crispEdges" />
<rect x="0" y="30" width="3" height="3" fill="#ff4c4c" shape-rendering="crispEdges" />
<rect x="3" y="30" width="3" height="3" fill="#ff9f1a" shape-rendering="crispEdges" />
<rect x="6" y="30" width="3" height="3" fill="#ff4c4c" shape-rendering="crispEdges" />
<rect x="21" y="30" width="3" height="3" fill="#ffffff" shape-rendering="crispEdges" />
<rect x="33" y="30" width="3" height="3" fill="#ff4c4c" shape-rendering="crispEdges" />
<rect x="36" y="30" width="3" height="3" fill="#ff9f1a" shape-rendering="crispEdges" />
<rect x="39" y="30" width="3" height="3" fill="#ff4c4c" shape-rendering="crispEdges" />
<rect x="0" y="33" width="3" height="3" fill="#ff4c4c" shape-rendering="crispEdges" />
<rect x="3" y="33" width="3" height="3" fill="#ff9f1a" shape-rendering="crispEdges" />
<rect x="6" y="33" width="3" height="3" fill="#ff9f1a" shape-rendering="crispEdges" />
<rect x="9" y="33" width="3" height="3" fill="#ff4c4c" shape-rendering="crispEdges" />
<rect x="12" y="33" width="3" height="3" fill="#ff4c4c" shape-rendering="crispEdges" />
<rect x="15" y="33" width="3" height="3" fill="#ff4c4c" shape-rendering="crispEdges" />
<rect x="18" y="33" width="3" height="3" fill="#ff4c4c" shape-rendering="crispEdges" />
<rect x="21" y="33" width="3" height="3" fill="#ff4c4c" shape-rendering="crispEdges" />
<rect x="24" y="33" width="3" height="3" fill="#ff4c4c" shape-rendering="crispEdges" />
<rect x="27" y="33" width="3" height="3" fill="#ff4c4c" shape-rendering="crispEdges" />
<rect x="30" y="33" width="3" height="3" fill="#ff4c4c" shape-rendering="crispEdges" />
<rect x="33" y="33" width="3" height="3" fill="#ff9f1a" shape-rendering="crispEdges" />
<rect x="36" y="33" width="3" height="3" fill="#ff9f1a" shape-rendering="crispEdges" />
<rect x="39" y="33" width="3" height="3" fill="#ff4c4c" shape-rendering="crispEdges" />
<rect x="0" y="36" width="3" height="3" fill="#ff4c4c" shape-rendering="crispEdges" />
<rect x="3" y="36" width="3" height="3" fill="#ff4c4c" shape-rendering="crispEdges" />
<rect x="6" y="36" width="3" height="3" fill="#ff9f1a" shape-rendering="crispEdges" />
<rect x="9" y="36" width="3" height="3" fill="#ff9f1a" shape-rendering="crispEdges" />
<rect x="12" y="36" width="3" height="3" fill="#ff9f1a" shape-rendering="crispEdges" />
<rect x="15" y="36" width="3" height="3" fill="#ff9f1a" shape-rendering="crispEdges" />
<rect x="18" y="36" width="3" height="3" fill="#ff9f1a" shape-rendering="crispEdges" />
<rect x="21" y="36" width="3" height="3" fill="#ff9f1a" shape-rendering="crispEdges" />
<rect x="24" y="36" width="3" height="3" fill="#ff9f1a" shape-rendering="crispEdges" />
<rect x="27" y="36" width="3" height="3" fill="#ff9f1a" shape-rendering="crispEdges" />
<rect x="30" y="36" width="3" height="3" fill="#ff9f1a" shape-rendering="crispEdges" />
<rect x="33" y="36" width="3" height="3" fill="#ff9f1a" shape-rendering="crispEdges" />
<rect x="36" y="36" width="3" height="3" fill="#ff4c4c" shape-rendering="crispEdges" />
<rect x="39" y="36" width="3" height="3" fill="#ff4c4c" shape-rendering="crispEdges" />
<rect x="3" y="39" width="3" height="3" fill="#ff4c4c" shape-rendering="crispEdges" />
<rect x="6" y="39" width="3" height="3" fill="#ff4c4c" shape-rendering="crispEdges" />
<rect x="9" y="39" width="3" height="3" fill="#ff9f1a" shape-rendering="crispEdges" />
<rect x="12" y="39" width="3" height="3" fill="#ff9f1a" shape-rendering="crispEdges" />
<rect x="15" y="39" width="3" height="3" fill="#ff9f1a" shape-rendering="crispEdges" />
<rect x="18" y="39" width="3" height="3" fill="#ff9f1a" shape-rendering="crispEdges" />
<rect x="21" y="39" width="3" height="3" fill="#ff9f1a" shape-rendering="crispEdges" />
<rect x="24" y="39" width="3" height="3" fill="#ff9f1a" shape-rendering="crispEdges" />
<rect x="27" y="39" width="3" height="3" fill="#ff9f1a" shape-rendering="crispEdges" />
<rect x="30" y="39" width="3" height="3" fill="#ff9f1a" shape-rendering="crispEdges" />
<rect x="33" y="39" width="3" height="3" fill="#ff4c4c" shape-rendering="crispEdges" />
<rect x="36" y="39" width="3" height="3" fill="#ff4c4c" shape-rendering="crispEdges" />
<rect x="6" y="42" width="3" height="3" fill="#ff4c4c" shape-rendering="crispEdges" />
<rect x="9" y="42" width="3" height="3" fill="#ff4c4c" shape-rendering="crispEdges" />
<rect x="12" y="42" width="3" height="3" fill="#ff4c4c" shape-rendering="crispEdges" />
<rect x="15" y="42" width="3" height="3" fill="#ff4c4c" shape-rendering="crispEdges" />
<rect x="18" y="42" width="3" height="3" fill="#ff4c4c" shape-rendering="crispEdges" />
<rect x="21" y="42" width="3" height="3" fill="#ff4c4c" shape-rendering="crispEdges" />
<rect x="24" y="42" width="3" height="3" fill="#ff4c4c" shape-rendering="crispEdges" />
<rect x="27" y="42" width="3" height="3" fill="#ff4c4c" shape-rendering="crispEdges" />
<rect x="30" y="42" width="3" height="3" fill="#ff4c4c" shape-rendering="crispEdges" />
<rect x="33" y="42" width="3" height="3" fill="#ff4c4c" shape-rendering="crispEdges" />
    <text x="0" y="-10" font-family="monospace" font-size="9" fill="#ff4c4c" font-weight="bold">PORT 80</text>
  </g>

  <!-- Animated Hacker -->
  <g class="hacker-container" transform="translate(180, 102)">
    <g class="frame-a">
      <rect x="15" y="0" width="3" height="3" fill="#00ff41" shape-rendering="crispEdges" />
<rect x="18" y="0" width="3" height="3" fill="#00ff41" shape-rendering="crispEdges" />
<rect x="21" y="0" width="3" height="3" fill="#00ff41" shape-rendering="crispEdges" />
<rect x="24" y="0" width="3" height="3" fill="#00ff41" shape-rendering="crispEdges" />
<rect x="27" y="0" width="3" height="3" fill="#00ff41" shape-rendering="crispEdges" />
<rect x="12" y="3" width="3" height="3" fill="#00ff41" shape-rendering="crispEdges" />
<rect x="15" y="3" width="3" height="3" fill="#00ff41" shape-rendering="crispEdges" />
<rect x="18" y="3" width="3" height="3" fill="#00ff41" shape-rendering="crispEdges" />
<rect x="21" y="3" width="3" height="3" fill="#00ff41" shape-rendering="crispEdges" />
<rect x="24" y="3" width="3" height="3" fill="#00ff41" shape-rendering="crispEdges" />
<rect x="27" y="3" width="3" height="3" fill="#00ff41" shape-rendering="crispEdges" />
<rect x="30" y="3" width="3" height="3" fill="#00ff41" shape-rendering="crispEdges" />
<rect x="9" y="6" width="3" height="3" fill="#00ff41" shape-rendering="crispEdges" />
<rect x="12" y="6" width="3" height="3" fill="#00ff41" shape-rendering="crispEdges" />
<rect x="15" y="6" width="3" height="3" fill="#161b22" shape-rendering="crispEdges" />
<rect x="18" y="6" width="3" height="3" fill="#161b22" shape-rendering="crispEdges" />
<rect x="21" y="6" width="3" height="3" fill="#161b22" shape-rendering="crispEdges" />
<rect x="24" y="6" width="3" height="3" fill="#161b22" shape-rendering="crispEdges" />
<rect x="27" y="6" width="3" height="3" fill="#00ff41" shape-rendering="crispEdges" />
<rect x="30" y="6" width="3" height="3" fill="#00ff41" shape-rendering="crispEdges" />
<rect x="33" y="6" width="3" height="3" fill="#00ff41" shape-rendering="crispEdges" />
<rect x="6" y="9" width="3" height="3" fill="#00ff41" shape-rendering="crispEdges" />
<rect x="9" y="9" width="3" height="3" fill="#00ff41" shape-rendering="crispEdges" />
<rect x="12" y="9" width="3" height="3" fill="#161b22" shape-rendering="crispEdges" />
<rect x="15" y="9" width="3" height="3" fill="#58a6ff" shape-rendering="crispEdges" />
<rect x="24" y="9" width="3" height="3" fill="#58a6ff" shape-rendering="crispEdges" />
<rect x="27" y="9" width="3" height="3" fill="#161b22" shape-rendering="crispEdges" />
<rect x="30" y="9" width="3" height="3" fill="#00ff41" shape-rendering="crispEdges" />
<rect x="33" y="9" width="3" height="3" fill="#00ff41" shape-rendering="crispEdges" />
<rect x="6" y="12" width="3" height="3" fill="#00ff41" shape-rendering="crispEdges" />
<rect x="9" y="12" width="3" height="3" fill="#00ff41" shape-rendering="crispEdges" />
<rect x="12" y="12" width="3" height="3" fill="#161b22" shape-rendering="crispEdges" />
<rect x="27" y="12" width="3" height="3" fill="#161b22" shape-rendering="crispEdges" />
<rect x="30" y="12" width="3" height="3" fill="#00ff41" shape-rendering="crispEdges" />
<rect x="33" y="12" width="3" height="3" fill="#00ff41" shape-rendering="crispEdges" />
<rect x="6" y="15" width="3" height="3" fill="#00ff41" shape-rendering="crispEdges" />
<rect x="9" y="15" width="3" height="3" fill="#00ff41" shape-rendering="crispEdges" />
<rect x="12" y="15" width="3" height="3" fill="#161b22" shape-rendering="crispEdges" />
<rect x="15" y="15" width="3" height="3" fill="#161b22" shape-rendering="crispEdges" />
<rect x="18" y="15" width="3" height="3" fill="#161b22" shape-rendering="crispEdges" />
<rect x="21" y="15" width="3" height="3" fill="#161b22" shape-rendering="crispEdges" />
<rect x="24" y="15" width="3" height="3" fill="#161b22" shape-rendering="crispEdges" />
<rect x="27" y="15" width="3" height="3" fill="#161b22" shape-rendering="crispEdges" />
<rect x="30" y="15" width="3" height="3" fill="#00ff41" shape-rendering="crispEdges" />
<rect x="33" y="15" width="3" height="3" fill="#00ff41" shape-rendering="crispEdges" />
<rect x="9" y="18" width="3" height="3" fill="#00ff41" shape-rendering="crispEdges" />
<rect x="12" y="18" width="3" height="3" fill="#00ff41" shape-rendering="crispEdges" />
<rect x="15" y="18" width="3" height="3" fill="#00ff41" shape-rendering="crispEdges" />
<rect x="18" y="18" width="3" height="3" fill="#00ff41" shape-rendering="crispEdges" />
<rect x="21" y="18" width="3" height="3" fill="#00ff41" shape-rendering="crispEdges" />
<rect x="24" y="18" width="3" height="3" fill="#00ff41" shape-rendering="crispEdges" />
<rect x="27" y="18" width="3" height="3" fill="#00ff41" shape-rendering="crispEdges" />
<rect x="30" y="18" width="3" height="3" fill="#00ff41" shape-rendering="crispEdges" />
<rect x="12" y="21" width="3" height="3" fill="#161b22" shape-rendering="crispEdges" />
<rect x="15" y="21" width="3" height="3" fill="#161b22" shape-rendering="crispEdges" />
<rect x="18" y="21" width="3" height="3" fill="#161b22" shape-rendering="crispEdges" />
<rect x="21" y="21" width="3" height="3" fill="#161b22" shape-rendering="crispEdges" />
<rect x="24" y="21" width="3" height="3" fill="#161b22" shape-rendering="crispEdges" />
<rect x="27" y="21" width="3" height="3" fill="#161b22" shape-rendering="crispEdges" />
<rect x="9" y="24" width="3" height="3" fill="#161b22" shape-rendering="crispEdges" />
<rect x="12" y="24" width="3" height="3" fill="#161b22" shape-rendering="crispEdges" />
<rect x="15" y="24" width="3" height="3" fill="#161b22" shape-rendering="crispEdges" />
<rect x="18" y="24" width="3" height="3" fill="#161b22" shape-rendering="crispEdges" />
<rect x="21" y="24" width="3" height="3" fill="#161b22" shape-rendering="crispEdges" />
<rect x="24" y="24" width="3" height="3" fill="#161b22" shape-rendering="crispEdges" />
<rect x="27" y="24" width="3" height="3" fill="#161b22" shape-rendering="crispEdges" />
<rect x="30" y="24" width="3" height="3" fill="#161b22" shape-rendering="crispEdges" />
<rect x="6" y="27" width="3" height="3" fill="#00ff41" shape-rendering="crispEdges" />
<rect x="9" y="27" width="3" height="3" fill="#161b22" shape-rendering="crispEdges" />
<rect x="12" y="27" width="3" height="3" fill="#161b22" shape-rendering="crispEdges" />
<rect x="15" y="27" width="3" height="3" fill="#161b22" shape-rendering="crispEdges" />
<rect x="18" y="27" width="3" height="3" fill="#161b22" shape-rendering="crispEdges" />
<rect x="21" y="27" width="3" height="3" fill="#161b22" shape-rendering="crispEdges" />
<rect x="24" y="27" width="3" height="3" fill="#161b22" shape-rendering="crispEdges" />
<rect x="27" y="27" width="3" height="3" fill="#161b22" shape-rendering="crispEdges" />
<rect x="30" y="27" width="3" height="3" fill="#161b22" shape-rendering="crispEdges" />
<rect x="33" y="27" width="3" height="3" fill="#00ff41" shape-rendering="crispEdges" />
<rect x="3" y="30" width="3" height="3" fill="#00ff41" shape-rendering="crispEdges" />
<rect x="6" y="30" width="3" height="3" fill="#00ff41" shape-rendering="crispEdges" />
<rect x="9" y="30" width="3" height="3" fill="#161b22" shape-rendering="crispEdges" />
<rect x="12" y="30" width="3" height="3" fill="#161b22" shape-rendering="crispEdges" />
<rect x="15" y="30" width="3" height="3" fill="#161b22" shape-rendering="crispEdges" />
<rect x="18" y="30" width="3" height="3" fill="#161b22" shape-rendering="crispEdges" />
<rect x="21" y="30" width="3" height="3" fill="#161b22" shape-rendering="crispEdges" />
<rect x="24" y="30" width="3" height="3" fill="#161b22" shape-rendering="crispEdges" />
<rect x="27" y="30" width="3" height="3" fill="#161b22" shape-rendering="crispEdges" />
<rect x="30" y="30" width="3" height="3" fill="#161b22" shape-rendering="crispEdges" />
<rect x="33" y="30" width="3" height="3" fill="#00ff41" shape-rendering="crispEdges" />
<rect x="36" y="30" width="3" height="3" fill="#00ff41" shape-rendering="crispEdges" />
<rect x="3" y="33" width="3" height="3" fill="#00ff41" shape-rendering="crispEdges" />
<rect x="6" y="33" width="3" height="3" fill="#00ff41" shape-rendering="crispEdges" />
<rect x="9" y="33" width="3" height="3" fill="#161b22" shape-rendering="crispEdges" />
<rect x="12" y="33" width="3" height="3" fill="#161b22" shape-rendering="crispEdges" />
<rect x="15" y="33" width="3" height="3" fill="#161b22" shape-rendering="crispEdges" />
<rect x="18" y="33" width="3" height="3" fill="#161b22" shape-rendering="crispEdges" />
<rect x="21" y="33" width="3" height="3" fill="#161b22" shape-rendering="crispEdges" />
<rect x="24" y="33" width="3" height="3" fill="#161b22" shape-rendering="crispEdges" />
<rect x="27" y="33" width="3" height="3" fill="#161b22" shape-rendering="crispEdges" />
<rect x="30" y="33" width="3" height="3" fill="#161b22" shape-rendering="crispEdges" />
<rect x="33" y="33" width="3" height="3" fill="#00ff41" shape-rendering="crispEdges" />
<rect x="36" y="33" width="3" height="3" fill="#00ff41" shape-rendering="crispEdges" />
<rect x="9" y="36" width="3" height="3" fill="#161b22" shape-rendering="crispEdges" />
<rect x="12" y="36" width="3" height="3" fill="#161b22" shape-rendering="crispEdges" />
<rect x="15" y="36" width="3" height="3" fill="#161b22" shape-rendering="crispEdges" />
<rect x="18" y="36" width="3" height="3" fill="#161b22" shape-rendering="crispEdges" />
<rect x="21" y="36" width="3" height="3" fill="#161b22" shape-rendering="crispEdges" />
<rect x="24" y="36" width="3" height="3" fill="#161b22" shape-rendering="crispEdges" />
<rect x="27" y="36" width="3" height="3" fill="#161b22" shape-rendering="crispEdges" />
<rect x="30" y="36" width="3" height="3" fill="#161b22" shape-rendering="crispEdges" />
<rect x="9" y="39" width="3" height="3" fill="#161b22" shape-rendering="crispEdges" />
<rect x="12" y="39" width="3" height="3" fill="#161b22" shape-rendering="crispEdges" />
<rect x="27" y="39" width="3" height="3" fill="#161b22" shape-rendering="crispEdges" />
<rect x="30" y="39" width="3" height="3" fill="#161b22" shape-rendering="crispEdges" />
<rect x="6" y="42" width="3" height="3" fill="#161b22" shape-rendering="crispEdges" />
<rect x="9" y="42" width="3" height="3" fill="#161b22" shape-rendering="crispEdges" />
<rect x="30" y="42" width="3" height="3" fill="#161b22" shape-rendering="crispEdges" />
<rect x="33" y="42" width="3" height="3" fill="#161b22" shape-rendering="crispEdges" />
<rect x="3" y="45" width="3" height="3" fill="#161b22" shape-rendering="crispEdges" />
<rect x="6" y="45" width="3" height="3" fill="#161b22" shape-rendering="crispEdges" />
<rect x="9" y="45" width="3" height="3" fill="#161b22" shape-rendering="crispEdges" />
<rect x="30" y="45" width="3" height="3" fill="#161b22" shape-rendering="crispEdges" />
<rect x="33" y="45" width="3" height="3" fill="#161b22" shape-rendering="crispEdges" />
<rect x="36" y="45" width="3" height="3" fill="#161b22" shape-rendering="crispEdges" />
    </g>
    <g class="frame-b" style="display: none;">
      <!-- CSS runner-switch overrides display: none -->
      <rect x="15" y="0" width="3" height="3" fill="#00ff41" shape-rendering="crispEdges" />
<rect x="18" y="0" width="3" height="3" fill="#00ff41" shape-rendering="crispEdges" />
<rect x="21" y="0" width="3" height="3" fill="#00ff41" shape-rendering="crispEdges" />
<rect x="24" y="0" width="3" height="3" fill="#00ff41" shape-rendering="crispEdges" />
<rect x="27" y="0" width="3" height="3" fill="#00ff41" shape-rendering="crispEdges" />
<rect x="12" y="3" width="3" height="3" fill="#00ff41" shape-rendering="crispEdges" />
<rect x="15" y="3" width="3" height="3" fill="#00ff41" shape-rendering="crispEdges" />
<rect x="18" y="3" width="3" height="3" fill="#00ff41" shape-rendering="crispEdges" />
<rect x="21" y="3" width="3" height="3" fill="#00ff41" shape-rendering="crispEdges" />
<rect x="24" y="3" width="3" height="3" fill="#00ff41" shape-rendering="crispEdges" />
<rect x="27" y="3" width="3" height="3" fill="#00ff41" shape-rendering="crispEdges" />
<rect x="30" y="3" width="3" height="3" fill="#00ff41" shape-rendering="crispEdges" />
<rect x="9" y="6" width="3" height="3" fill="#00ff41" shape-rendering="crispEdges" />
<rect x="12" y="6" width="3" height="3" fill="#00ff41" shape-rendering="crispEdges" />
<rect x="15" y="6" width="3" height="3" fill="#161b22" shape-rendering="crispEdges" />
<rect x="18" y="6" width="3" height="3" fill="#161b22" shape-rendering="crispEdges" />
<rect x="21" y="6" width="3" height="3" fill="#161b22" shape-rendering="crispEdges" />
<rect x="24" y="6" width="3" height="3" fill="#161b22" shape-rendering="crispEdges" />
<rect x="27" y="6" width="3" height="3" fill="#00ff41" shape-rendering="crispEdges" />
<rect x="30" y="6" width="3" height="3" fill="#00ff41" shape-rendering="crispEdges" />
<rect x="33" y="6" width="3" height="3" fill="#00ff41" shape-rendering="crispEdges" />
<rect x="6" y="9" width="3" height="3" fill="#00ff41" shape-rendering="crispEdges" />
<rect x="9" y="9" width="3" height="3" fill="#00ff41" shape-rendering="crispEdges" />
<rect x="12" y="9" width="3" height="3" fill="#161b22" shape-rendering="crispEdges" />
<rect x="15" y="9" width="3" height="3" fill="#58a6ff" shape-rendering="crispEdges" />
<rect x="24" y="9" width="3" height="3" fill="#58a6ff" shape-rendering="crispEdges" />
<rect x="27" y="9" width="3" height="3" fill="#161b22" shape-rendering="crispEdges" />
<rect x="30" y="9" width="3" height="3" fill="#00ff41" shape-rendering="crispEdges" />
<rect x="33" y="9" width="3" height="3" fill="#00ff41" shape-rendering="crispEdges" />
<rect x="6" y="12" width="3" height="3" fill="#00ff41" shape-rendering="crispEdges" />
<rect x="9" y="12" width="3" height="3" fill="#00ff41" shape-rendering="crispEdges" />
<rect x="12" y="12" width="3" height="3" fill="#161b22" shape-rendering="crispEdges" />
<rect x="27" y="12" width="3" height="3" fill="#161b22" shape-rendering="crispEdges" />
<rect x="30" y="12" width="3" height="3" fill="#00ff41" shape-rendering="crispEdges" />
<rect x="33" y="12" width="3" height="3" fill="#00ff41" shape-rendering="crispEdges" />
<rect x="6" y="15" width="3" height="3" fill="#00ff41" shape-rendering="crispEdges" />
<rect x="9" y="15" width="3" height="3" fill="#00ff41" shape-rendering="crispEdges" />
<rect x="12" y="15" width="3" height="3" fill="#161b22" shape-rendering="crispEdges" />
<rect x="15" y="15" width="3" height="3" fill="#161b22" shape-rendering="crispEdges" />
<rect x="18" y="15" width="3" height="3" fill="#161b22" shape-rendering="crispEdges" />
<rect x="21" y="15" width="3" height="3" fill="#161b22" shape-rendering="crispEdges" />
<rect x="24" y="15" width="3" height="3" fill="#161b22" shape-rendering="crispEdges" />
<rect x="27" y="15" width="3" height="3" fill="#161b22" shape-rendering="crispEdges" />
<rect x="30" y="15" width="3" height="3" fill="#00ff41" shape-rendering="crispEdges" />
<rect x="33" y="15" width="3" height="3" fill="#00ff41" shape-rendering="crispEdges" />
<rect x="9" y="18" width="3" height="3" fill="#00ff41" shape-rendering="crispEdges" />
<rect x="12" y="18" width="3" height="3" fill="#00ff41" shape-rendering="crispEdges" />
<rect x="15" y="18" width="3" height="3" fill="#00ff41" shape-rendering="crispEdges" />
<rect x="18" y="18" width="3" height="3" fill="#00ff41" shape-rendering="crispEdges" />
<rect x="21" y="18" width="3" height="3" fill="#00ff41" shape-rendering="crispEdges" />
<rect x="24" y="18" width="3" height="3" fill="#00ff41" shape-rendering="crispEdges" />
<rect x="27" y="18" width="3" height="3" fill="#00ff41" shape-rendering="crispEdges" />
<rect x="30" y="18" width="3" height="3" fill="#00ff41" shape-rendering="crispEdges" />
<rect x="12" y="21" width="3" height="3" fill="#161b22" shape-rendering="crispEdges" />
<rect x="15" y="21" width="3" height="3" fill="#161b22" shape-rendering="crispEdges" />
<rect x="18" y="21" width="3" height="3" fill="#161b22" shape-rendering="crispEdges" />
<rect x="21" y="21" width="3" height="3" fill="#161b22" shape-rendering="crispEdges" />
<rect x="24" y="21" width="3" height="3" fill="#161b22" shape-rendering="crispEdges" />
<rect x="27" y="21" width="3" height="3" fill="#161b22" shape-rendering="crispEdges" />
<rect x="9" y="24" width="3" height="3" fill="#161b22" shape-rendering="crispEdges" />
<rect x="12" y="24" width="3" height="3" fill="#161b22" shape-rendering="crispEdges" />
<rect x="15" y="24" width="3" height="3" fill="#161b22" shape-rendering="crispEdges" />
<rect x="18" y="24" width="3" height="3" fill="#161b22" shape-rendering="crispEdges" />
<rect x="21" y="24" width="3" height="3" fill="#161b22" shape-rendering="crispEdges" />
<rect x="24" y="24" width="3" height="3" fill="#161b22" shape-rendering="crispEdges" />
<rect x="27" y="24" width="3" height="3" fill="#161b22" shape-rendering="crispEdges" />
<rect x="30" y="24" width="3" height="3" fill="#161b22" shape-rendering="crispEdges" />
<rect x="6" y="27" width="3" height="3" fill="#00ff41" shape-rendering="crispEdges" />
<rect x="9" y="27" width="3" height="3" fill="#161b22" shape-rendering="crispEdges" />
<rect x="12" y="27" width="3" height="3" fill="#161b22" shape-rendering="crispEdges" />
<rect x="15" y="27" width="3" height="3" fill="#161b22" shape-rendering="crispEdges" />
<rect x="18" y="27" width="3" height="3" fill="#161b22" shape-rendering="crispEdges" />
<rect x="21" y="27" width="3" height="3" fill="#161b22" shape-rendering="crispEdges" />
<rect x="24" y="27" width="3" height="3" fill="#161b22" shape-rendering="crispEdges" />
<rect x="27" y="27" width="3" height="3" fill="#161b22" shape-rendering="crispEdges" />
<rect x="30" y="27" width="3" height="3" fill="#161b22" shape-rendering="crispEdges" />
<rect x="33" y="27" width="3" height="3" fill="#00ff41" shape-rendering="crispEdges" />
<rect x="3" y="30" width="3" height="3" fill="#00ff41" shape-rendering="crispEdges" />
<rect x="6" y="30" width="3" height="3" fill="#00ff41" shape-rendering="crispEdges" />
<rect x="9" y="30" width="3" height="3" fill="#161b22" shape-rendering="crispEdges" />
<rect x="12" y="30" width="3" height="3" fill="#161b22" shape-rendering="crispEdges" />
<rect x="15" y="30" width="3" height="3" fill="#161b22" shape-rendering="crispEdges" />
<rect x="18" y="30" width="3" height="3" fill="#161b22" shape-rendering="crispEdges" />
<rect x="21" y="30" width="3" height="3" fill="#161b22" shape-rendering="crispEdges" />
<rect x="24" y="30" width="3" height="3" fill="#161b22" shape-rendering="crispEdges" />
<rect x="27" y="30" width="3" height="3" fill="#161b22" shape-rendering="crispEdges" />
<rect x="30" y="30" width="3" height="3" fill="#161b22" shape-rendering="crispEdges" />
<rect x="33" y="30" width="3" height="3" fill="#00ff41" shape-rendering="crispEdges" />
<rect x="36" y="30" width="3" height="3" fill="#00ff41" shape-rendering="crispEdges" />
<rect x="3" y="33" width="3" height="3" fill="#00ff41" shape-rendering="crispEdges" />
<rect x="6" y="33" width="3" height="3" fill="#00ff41" shape-rendering="crispEdges" />
<rect x="9" y="33" width="3" height="3" fill="#161b22" shape-rendering="crispEdges" />
<rect x="12" y="33" width="3" height="3" fill="#161b22" shape-rendering="crispEdges" />
<rect x="15" y="33" width="3" height="3" fill="#161b22" shape-rendering="crispEdges" />
<rect x="18" y="33" width="3" height="3" fill="#161b22" shape-rendering="crispEdges" />
<rect x="21" y="33" width="3" height="3" fill="#161b22" shape-rendering="crispEdges" />
<rect x="24" y="33" width="3" height="3" fill="#161b22" shape-rendering="crispEdges" />
<rect x="27" y="33" width="3" height="3" fill="#161b22" shape-rendering="crispEdges" />
<rect x="30" y="33" width="3" height="3" fill="#161b22" shape-rendering="crispEdges" />
<rect x="33" y="33" width="3" height="3" fill="#00ff41" shape-rendering="crispEdges" />
<rect x="36" y="33" width="3" height="3" fill="#00ff41" shape-rendering="crispEdges" />
<rect x="9" y="36" width="3" height="3" fill="#161b22" shape-rendering="crispEdges" />
<rect x="12" y="36" width="3" height="3" fill="#161b22" shape-rendering="crispEdges" />
<rect x="15" y="36" width="3" height="3" fill="#161b22" shape-rendering="crispEdges" />
<rect x="18" y="36" width="3" height="3" fill="#161b22" shape-rendering="crispEdges" />
<rect x="21" y="36" width="3" height="3" fill="#161b22" shape-rendering="crispEdges" />
<rect x="24" y="36" width="3" height="3" fill="#161b22" shape-rendering="crispEdges" />
<rect x="27" y="36" width="3" height="3" fill="#161b22" shape-rendering="crispEdges" />
<rect x="30" y="36" width="3" height="3" fill="#161b22" shape-rendering="crispEdges" />
<rect x="12" y="39" width="3" height="3" fill="#161b22" shape-rendering="crispEdges" />
<rect x="15" y="39" width="3" height="3" fill="#161b22" shape-rendering="crispEdges" />
<rect x="24" y="39" width="3" height="3" fill="#161b22" shape-rendering="crispEdges" />
<rect x="27" y="39" width="3" height="3" fill="#161b22" shape-rendering="crispEdges" />
<rect x="15" y="42" width="3" height="3" fill="#161b22" shape-rendering="crispEdges" />
<rect x="18" y="42" width="3" height="3" fill="#161b22" shape-rendering="crispEdges" />
<rect x="24" y="42" width="3" height="3" fill="#161b22" shape-rendering="crispEdges" />
<rect x="27" y="42" width="3" height="3" fill="#161b22" shape-rendering="crispEdges" />
<rect x="12" y="45" width="3" height="3" fill="#161b22" shape-rendering="crispEdges" />
<rect x="15" y="45" width="3" height="3" fill="#161b22" shape-rendering="crispEdges" />
<rect x="18" y="45" width="3" height="3" fill="#161b22" shape-rendering="crispEdges" />
<rect x="24" y="45" width="3" height="3" fill="#161b22" shape-rendering="crispEdges" />
<rect x="27" y="45" width="3" height="3" fill="#161b22" shape-rendering="crispEdges" />
<rect x="30" y="45" width="3" height="3" fill="#161b22" shape-rendering="crispEdges" />
    </g>
    <!-- Little status label -->
    <text x="-15" y="-12" font-family="monospace" font-size="9" fill="#00ff41">chris@sec</text>
  </g>

  <!-- Overlay Header Text -->
  <rect x="250" y="65" width="300" height="50" fill="#0b0e14" opacity="0.8" rx="5" />
  <text x="400" y="95" class="glow-text" font-size="20" text-anchor="middle">🔒 CHRIS // SECURITY</text>
  <text x="400" y="110" font-family="monospace" font-size="10" fill="#8b949e" text-anchor="middle">Status: Escaping Firewalls...</text>
</svg>
